<svg xmlns="http://www.w3.org/2000/svg" width="40" height="40" viewBox="0 0 40 40"><defs><style>.a{fill:#f1950e;fill-rule:evenodd;}</style></defs><path class="a" d="M132,112a20,20,0,1,1-20,20A20,20,0,0,1,132,112Zm1.94,25.589a7.438,7.438,0,0,1-3.44-.366l-1.465,1.458a2.675,2.675,0,0,1-3.565-.073,2.644,2.644,0,0,1-.158-3.632l3.979-3.959a2.628,2.628,0,0,1,4.34,1.262l2-1.992a5.35,5.35,0,0,0-3.158-2.447,5.484,5.484,0,0,0-5.1,1.273l-3.98,3.96a5.324,5.324,0,0,0,.186,7.364,5.388,5.388,0,0,0,7.355.138Zm-3.858-11.167a7.437,7.437,0,0,1,3.439.367l1.464-1.457a2.674,2.674,0,0,1,3.564.075,2.643,2.643,0,0,1,.159,3.631l-3.976,3.956a2.628,2.628,0,0,1-4.339-1.263l-2,1.99a5.353,5.353,0,0,0,3.157,2.448,5.479,5.479,0,0,0,5.094-1.271l3.977-3.957a5.322,5.322,0,0,0-.188-7.362,5.386,5.386,0,0,0-7.352-.141Z" transform="translate(-112 -112)"/></svg>