<?xml version="1.0" encoding="utf-8"?>
<!-- Generator: Adobe Illustrator 22.1.0, SVG Export Plug-In . SVG Version: 6.00 Build 0)  -->
<svg version="1.1" id="Layer_1" xmlns="http://www.w3.org/2000/svg" xmlns:xlink="http://www.w3.org/1999/xlink" x="0px" y="0px"
	 viewBox="0 0 15.7 11" style="enable-background:new 0 0 15.7 11;" xml:space="preserve">
<style type="text/css">
	.st0{fill:#999999;}
</style>
<path class="st0" d="M7.9,3C6.5,3,5.4,4.1,5.4,5.5S6.5,8,7.9,8s2.5-1.1,2.5-2.5S9.2,3,7.9,3z M7.9,7C7,7,6.4,6.3,6.4,5.5S7,4,7.9,4
	s1.5,0.7,1.5,1.5S8.7,7,7.9,7z M15.7,5.3C14.4,2.1,11.3,0,7.9,0C4.4,0,1.3,2.1,0.1,5.3L0,5.5l0.1,0.2C1.3,8.9,4.4,11,7.9,11
	c3.5,0,6.5-2.1,7.8-5.3l0.1-0.2L15.7,5.3z M7.9,10c-3,0-5.6-1.8-6.8-4.5C2.2,2.8,4.9,1,7.9,1c3,0,5.6,1.8,6.8,4.5
	C13.5,8.2,10.9,10,7.9,10z"/>
</svg>
