<svg xmlns="http://www.w3.org/2000/svg" width="800" height="800" viewBox="0 0 800 800">
  <defs>
    <style>
      .cls-1 {
        fill: #f1950e;
        fill-rule: evenodd;
      }
    </style>
  </defs>
  <path id="icon_instagram" class="cls-1" d="M512,112A397.776,397.776,0,1,1,229,228,399.812,399.812,0,0,1,512,112ZM284.313,371A86.262,86.262,0,0,1,370,285.156H653A85.789,85.789,0,0,1,738.625,371V654A86.474,86.474,0,0,1,653,739.063H370A86.587,86.587,0,0,1,284.313,654V371Zm42.653,92.8V654A46.337,46.337,0,0,0,337,679a47.245,47.245,0,0,0,33,17.076H653A45.253,45.253,0,0,0,697.359,654V463.8H628A119.074,119.074,0,0,1,638,512,126.319,126.319,0,0,1,512,637c-37.4-.636-73.171-16.836-97-46a125.777,125.777,0,0,1-28-79,115.891,115.891,0,0,1,9-48.2H326.966ZM512,431a83.152,83.152,0,0,1,81,81A80.612,80.612,0,1,1,512,431Zm96.751-94.866v79h78v-79h-78Z" transform="translate(-112 -112)"/>
</svg>
