<svg xmlns="http://www.w3.org/2000/svg" width="754.188" height="800.219" viewBox="0 0 754.188 800.219">
  <defs>
    <style>
      .cls-1 {
        fill: #fff;
        fill-rule: evenodd;
      }
    </style>
  </defs>
  <path id="icon_share" class="cls-1" d="M290,358A157.037,157.037,0,0,0,135,513c0.4,36.176,12.777,71.192,36,99,29.527,35.355,73.233,55.11,119,56a178.512,178.512,0,0,0,111-53L583,719a150.733,150.733,0,0,0-4,38A153.416,153.416,0,0,0,734,912,155.031,155.031,0,0,0,889,757c-0.041-36.551-12.45-72.006-36-100-29.574-35.154-73.335-54.6-119-55a157.394,157.394,0,0,0-114,50L436,549a141.207,141.207,0,0,0-.13-75L620.215,372A156.762,156.762,0,0,0,734,422,150.466,150.466,0,0,0,889,267,147.485,147.485,0,0,0,734,112c-42.361-2.238-84.324,13.01-114,44-36.434,38.048-48.756,94.067-33,146L401,408A157.7,157.7,0,0,0,290,358Zm0,76c23.38,0.8,45.575,11.37,60,30a77.677,77.677,0,0,1,16,49,82.539,82.539,0,0,1-76,77c-23.36-.312-45.735-10.153-61-28a80.327,80.327,0,0,1-19-49A78.523,78.523,0,0,1,290,434ZM734,680a78.273,78.273,0,0,1,79,77,78,78,0,0,1-156,0A84.677,84.677,0,0,1,734,680Zm0-336a82.207,82.207,0,0,1-77-77,80.345,80.345,0,0,1,77-80c23.964,0.721,46.778,11.263,62,30a81.519,81.519,0,0,1,18,50A80.278,80.278,0,0,1,734,344Z" transform="translate(-135 -111.781)"/>
</svg>
