<?xml version="1.0" encoding="utf-8"?>
<!-- Generator: Adobe Illustrator 22.1.0, SVG Export Plug-In . SVG Version: 6.00 Build 0)  -->
<svg version="1.1" id="Layer_1" xmlns="http://www.w3.org/2000/svg" xmlns:xlink="http://www.w3.org/1999/xlink" x="0px" y="0px"
	 viewBox="0 0 32 32" style="enable-background:new 0 0 32 32;" xml:space="preserve">
<style type="text/css">
	.st0{fill:#FFFFFF;}
</style>
<path class="st0" d="M16,0C7.2,0,0,7.2,0,16s7.2,16,16,16s16-7.2,16-16S24.8,0,16,0z M16,30C8.3,30,2,23.7,2,16S8.3,2,16,2
	s14,6.3,14,14S23.7,30,16,30z M22.1,10.5l-9,9l-3.3-3.3c-0.4-0.4-1-0.4-1.4,0s-0.4,1,0,1.4l4,4c0.2,0.2,0.5,0.3,0.7,0.3
	s0.5-0.1,0.7-0.3l9.7-9.7c0.4-0.4,0.4-1,0-1.4S22.5,10.1,22.1,10.5z"/>
</svg>
