<?xml version="1.0" encoding="utf-8"?>
<!-- Generator: Adobe Illustrator 22.1.0, SVG Export Plug-In . SVG Version: 6.00 Build 0)  -->
<svg version="1.1" id="Layer_1" xmlns="http://www.w3.org/2000/svg" xmlns:xlink="http://www.w3.org/1999/xlink" x="0px" y="0px"
	 viewBox="0 0 98.7 77.7" style="enable-background:new 0 0 98.7 77.7;" xml:space="preserve">
<style type="text/css">
	.st0{opacity:0.4;}
	.st1{fill:#D51F53;}
	.st2{opacity:0.6;}
	.st3{fill:#FDB913;}
	.st4{fill:#8BC53F;}
	.st5{fill:#0096DB;}
</style>
<g>
	<g class="st0">
		<polygon class="st1" points="51.9,66.7 54,73.7 44.2,73.6 43.5,66.5 		"/>
	</g>
	<g class="st2">
		<rect x="35.5" y="20.7" class="st3" width="29.8" height="2.2"/>
	</g>
	<g class="st0">
		<path class="st3" d="M37,19.6c-1.2,0-2.2,1-2.2,2.2v17.6c0,0.1,0,0.3,0,0.4c0,0.3,0,0.6,0,0.9c0,8.6,7,15.5,15.5,15.5"/>
	</g>
	<g>
		<path class="st3" d="M26,58.5c-1.4,1.9-4.1,2.3-6,0.9c-1.9-1.4-2.3-4.1-0.9-6c1.4-1.9,4.1-2.3,6-0.9C27,53.9,27.4,56.6,26,58.5z"
			/>
	</g>
	<g>
		<path class="st4" d="M60.3,10.2c-0.2,0-0.4,0-0.5,0l0.1-1c0.1,0,0.3,0,0.4,0c0.2,0,0.3,0,0.4,0l0.2,1
			C60.7,10.2,60.5,10.2,60.3,10.2z M58.7,9.8C58.3,9.6,58,9.3,57.8,9l0.7-0.7c0.2,0.2,0.4,0.4,0.6,0.5L58.7,9.8z M62,9.7l-0.5-0.9
			c0.2-0.1,0.4-0.3,0.6-0.5l0.8,0.6C62.7,9.2,62.4,9.5,62,9.7z M57.1,8.1c-0.1-0.4-0.2-0.7-0.2-1.1l1,0c0,0.3,0.1,0.5,0.2,0.8
			L57.1,8.1z M63.5,7.9l-0.9-0.3c0.1-0.3,0.1-0.5,0.1-0.8c0-0.1,0-0.1,0-0.2l1-0.1c0,0.1,0,0.2,0,0.3C63.7,7.2,63.6,7.6,63.5,7.9z
			 M58,6.1l-1-0.3c0.1-0.4,0.3-0.7,0.5-1l0.8,0.6C58.2,5.6,58.1,5.8,58,6.1z M62.5,5.8c-0.1-0.3-0.3-0.5-0.5-0.7l0.7-0.7
			c0.3,0.3,0.5,0.6,0.7,1L62.5,5.8z M59,4.8l-0.5-0.8c0.3-0.2,0.7-0.4,1.1-0.5l0.2,1C59.5,4.5,59.2,4.6,59,4.8z M61.4,4.6
			c-0.2-0.1-0.5-0.2-0.8-0.2l0.1-1c0.4,0,0.8,0.2,1.1,0.3L61.4,4.6z"/>
	</g>
	<g>
		<path class="st5" d="M50.4,16.8l0-1c0.3,0,0.6-0.1,0.8-0.1l0.3,0.9C51.2,16.8,50.8,16.8,50.4,16.8z M49.3,16.7
			c-0.4-0.1-0.7-0.3-1-0.5l0.6-0.8c0.2,0.2,0.5,0.3,0.8,0.4L49.3,16.7z M52.6,16.1L52,15.3c0.2-0.2,0.4-0.4,0.6-0.6
			c0.1-0.1,0.2-0.2,0.2-0.3l0.9,0.5c-0.1,0.2-0.2,0.3-0.3,0.5C53.2,15.6,52.9,15.9,52.6,16.1z M47.4,15.4c-0.2-0.3-0.4-0.6-0.6-1
			l0.9-0.4c0.1,0.3,0.2,0.5,0.4,0.7L47.4,15.4z M54.1,13.7l-1-0.2c0-0.2,0-0.3,0-0.5c0-0.1,0-0.2,0-0.4l1-0.1c0,0.2,0,0.3,0,0.5
			C54.1,13.3,54.1,13.5,54.1,13.7z M46.6,13.3c0-0.1,0-0.2,0-0.2c0-0.3,0-0.6,0.1-0.9l1,0.2c-0.1,0.2-0.1,0.4-0.1,0.7
			c0,0.1,0,0.1,0,0.2L46.6,13.3z M52.9,11.9c-0.1-0.3-0.3-0.5-0.5-0.7l0.7-0.7c0.3,0.3,0.5,0.6,0.6,1L52.9,11.9z M48,11.6l-0.8-0.5
			c0-0.1,0.1-0.2,0.2-0.2c0.2-0.2,0.4-0.5,0.6-0.6l0.6,0.8c-0.2,0.1-0.3,0.3-0.4,0.5C48.1,11.5,48.1,11.6,48,11.6z M51.7,10.7
			c-0.2-0.1-0.5-0.2-0.8-0.3l0.2-1c0.4,0.1,0.7,0.2,1.1,0.4L51.7,10.7z M49.3,10.5l-0.4-0.9c0.4-0.1,0.7-0.2,1.1-0.3l0.1,1
			C49.8,10.4,49.5,10.4,49.3,10.5z"/>
	</g>
	<g>
		<path class="st3" d="M37.1,11.1L37.1,11.1c-0.4,0-0.7,0-1.1-0.1l0.2-1c0.3,0.1,0.6,0.1,0.9,0.1L37.1,11.1z M38.2,11L38,10
			c0.3-0.1,0.6-0.1,0.9-0.3l0.4,0.9C38.9,10.8,38.5,10.9,38.2,11z M35,10.7c-0.3-0.1-0.7-0.3-1-0.5l0.6-0.8c0.2,0.2,0.5,0.3,0.8,0.4
			L35,10.7z M40.2,10.2l-0.6-0.8c0.2-0.2,0.5-0.4,0.7-0.6L41,9.5C40.7,9.7,40.5,10,40.2,10.2z M33.2,9.5c-0.3-0.3-0.5-0.5-0.7-0.8
			l0.8-0.6c0.2,0.2,0.4,0.5,0.6,0.7L33.2,9.5z M41.7,8.6l-0.8-0.6c0.2-0.2,0.3-0.5,0.4-0.8l0.9,0.4C42.1,8,41.9,8.3,41.7,8.6z
			 M32,7.7c-0.1-0.3-0.2-0.7-0.3-1l1-0.2c0.1,0.3,0.1,0.6,0.3,0.8L32,7.7z M42.5,6.6l-1-0.2c0.1-0.3,0.1-0.6,0.1-0.9l1-0.1v0.1
			C42.6,5.9,42.6,6.3,42.5,6.6z M31.5,5.6L31.5,5.6c0-0.4,0-0.7,0.1-1.1l1,0.2c-0.1,0.3-0.1,0.6-0.1,0.9L31.5,5.6z M41.5,4.6
			c-0.1-0.3-0.2-0.6-0.3-0.8l0.9-0.4c0.1,0.3,0.3,0.7,0.3,1L41.5,4.6z M32.9,3.8l-0.9-0.4c0.1-0.3,0.3-0.7,0.5-1L33.3,3
			C33.1,3.3,33,3.6,32.9,3.8z M40.8,3c-0.2-0.2-0.4-0.5-0.6-0.7L41,1.6c0.3,0.3,0.5,0.5,0.7,0.8L40.8,3z M33.8,2.4l-0.7-0.7
			C33.4,1.4,33.7,1.2,34,1l0.6,0.8C34.3,2,34,2.1,33.8,2.4z M39.6,1.7c-0.2-0.2-0.5-0.3-0.8-0.4l0.4-0.9c0.3,0.1,0.7,0.3,1,0.5
			L39.6,1.7z M35.3,1.4l-0.4-0.9c0.3-0.1,0.7-0.3,1-0.3l0.2,1C35.9,1.2,35.6,1.2,35.3,1.4z M37.9,1.1C37.6,1,37.4,1,37.1,1l0-1h0
			c0.3,0,0.7,0,1,0.1L37.9,1.1z"/>
	</g>
	<path d="M45.3,74.9h10.3c1.7,0,3-1.3,3-3v-3.8c0-1.7-1.3-3-3-3H45.3c-1.7,0-3,1.3-3,3v3.8C42.3,73.5,43.7,74.9,45.3,74.9z
		 M44.3,68.1c0-0.6,0.4-1,1-1h10.3c0.6,0,1,0.4,1,1v3.8c0,0.6-0.4,1-1,1H45.3c-0.6,0-1-0.4-1-1V68.1z M63.6,51.1c0.1,0,0.1,0,0.2,0
		c3.4-1.1,6.6-3,9-5.3c4.9-4.8,6.7-14,1.7-19.1c-2.1-2.2-5.3-2.4-7.6-2.4v-1.9c0-1.8-1.5-3.2-3.2-3.2H37c-1.8,0-3.2,1.5-3.2,3.2v1.9
		c-2.2,0-5.3,0.3-7.2,2.4c-4.9,5.2-3.1,14.4,1.7,19.1c2.3,2.3,5.4,4.1,8.7,5.2c1.7,2.4,4.1,4.3,6.9,5.5v5.9h-5.1c-1.7,0-3,1.3-3,3
		v9.3c0,1.7,1.3,3,3,3H62c1.7,0,3-1.3,3-3v-9.3c0-1.7-1.3-3-3-3h-5v-5.9C59.6,55.2,61.9,53.4,63.6,51.1z M66.9,41.2
		c0-0.2,0-0.4,0-0.7l0-0.1c0-0.2,0-0.3,0-0.5V26.2c2.4,0,4.7,0.3,6.1,1.8c4.1,4.3,2.4,12.3-1.7,16.3c-1.7,1.6-3.8,3-6.1,4
		C66.3,46.2,66.9,43.8,66.9,41.2z M29.7,44.3c-4.1-4-5.8-12-1.7-16.3c1.3-1.4,3.5-1.7,5.8-1.7V40c0,0.2,0,0.3,0,0.5l0,0.1
		c0,0.2,0,0.4,0,0.7c0,2.5,0.6,4.8,1.5,6.9C33.2,47.2,31.3,45.8,29.7,44.3z M62,64.3c0.6,0,1,0.4,1,1v9.3c0,0.6-0.4,1-1,1H38.7
		c-0.6,0-1-0.4-1-1v-9.3c0-0.6,0.4-1,1-1H62z M45.9,62.3v-5.2c1.4,0.4,2.9,0.6,4.5,0.6c1.6,0,3.2-0.2,4.6-0.7v5.2H45.9z M50.4,55.8
		c-8,0-14.5-6.5-14.5-14.5c0-0.2,0-0.4,0-0.5l0-0.4l0-0.1c0-0.1,0-0.2,0-0.2V26.2h13.7c0.6,0,1-0.4,1-1s-0.4-1-1-1H35.8v-1.9
		c0-0.7,0.6-1.2,1.2-1.2h26.6c0.7,0,1.2,0.6,1.2,1.2V40c0,0.1,0,0.2,0,0.2l0,0.1l0,0.4c0,0.2,0,0.3,0,0.5
		C64.9,49.3,58.4,55.8,50.4,55.8z M58.8,24.2H56c-0.6,0-1,0.4-1,1s0.4,1,1,1h2.8c0.6,0,1-0.4,1-1S59.4,24.2,58.8,24.2z M48.4,51.1
		C41.3,49.8,40,43,40,42.7c-0.1-0.5-0.6-0.9-1.2-0.8C38.3,42,37.9,42.5,38,43c0,0.1,1.5,8.5,10,10.1c0.1,0,0.1,0,0.2,0
		c0.5,0,0.9-0.3,1-0.8C49.3,51.7,48.9,51.2,48.4,51.1z M55.4,51c-0.3,0.3-1.1,0.4-1.5,0.4c-0.6,0-1,0.4-1,1s0.4,1,1,1c0,0,0,0,0.1,0
		c0.4,0,2-0.1,2.9-1c0.4-0.4,0.4-1,0-1.4S55.8,50.6,55.4,51z"/>
	<g class="st0">
		<rect x="68.5" y="73.5" width="30.2" height="2"/>
	</g>
	<g class="st0">
		<rect y="73.5" width="32.3" height="2"/>
	</g>
	<g>
		<path class="st5" d="M70.1,68.1c0-1.2,1-2.2,2.2-2.2c1.2,0,2.2,1,2.2,2.2c0,1.2-1,2.2-2.2,2.2C71.1,70.3,70.1,69.3,70.1,68.1z"/>
	</g>
	<g>
		<circle class="st1" cx="78.2" cy="55.8" r="2.7"/>
	</g>
</g>
</svg>
