<?xml version="1.0" encoding="utf-8"?>
<!-- Generator: Adobe Illustrator 22.1.0, SVG Export Plug-In . SVG Version: 6.00 Build 0)  -->
<svg version="1.1" id="Layer_1" xmlns="http://www.w3.org/2000/svg" xmlns:xlink="http://www.w3.org/1999/xlink" x="0px" y="0px"
	 viewBox="0 0 84.1 65.1" style="enable-background:new 0 0 84.1 65.1;" xml:space="preserve">
<style type="text/css">
	.st0{opacity:0.4;clip-path:url(#SVGID_2_);}
	.st1{fill:#0096DB;}
	.st2{opacity:0.4;}
	.st3{fill:#FDB913;}
	.st4{fill:#D51F53;}
</style>
<g>
	<g>
		<defs>
			<path id="SVGID_1_" d="M37.4,60.7c5.8-1,20.3-25.6,13.5-45.1c-4.7-13.5,28-4.8,28-4.8s6.1,39.5,5.1,41.4s-27.1,13.2-30,13
				C51.2,64.9,37.4,60.7,37.4,60.7z"/>
		</defs>
		<clipPath id="SVGID_2_">
			<use xlink:href="#SVGID_1_"  style="overflow:visible;"/>
		</clipPath>
		<g class="st0">
			<path class="st1" d="M58.1,31.5V22l-18.1-8.6L21.9,22v19.3c0,3.9,1.8,7.2,4.9,10.1c3.2,3,7.7,5.6,13.2,7.8
				c5.4-2.3,10-4.8,13.1-7.8c2.2-2,3.7-4.2,4.4-6.7"/>
		</g>
	</g>
	<g class="st2">
		<circle class="st3" cx="40.4" cy="48.2" r="4.1"/>
	</g>
	<g class="st2">
		<path class="st4" d="M40.4,40.1c-1.5,0-2.6-1.2-2.7-2.8l-1.4-12.2c-0.2-2.2,2-4.1,4.1-4.1c2.1,0,4.3,2,4.1,4.1l-1.4,12.2
			C43,38.8,41.9,40.1,40.4,40.1z"/>
	</g>
	<g>
		<path class="st3" d="M81.1,7.8c-1.6,2.2-4.7,2.7-6.9,1.1C72,7.3,71.6,4.2,73.2,2c1.6-2.2,4.7-2.7,6.9-1.1
			C82.3,2.6,82.8,5.6,81.1,7.8z"/>
	</g>
	<g>
		<path class="st1" d="M1.2,12.1c0-1.4,1.2-2.6,2.6-2.6c1.4,0,2.6,1.2,2.6,2.6c0,1.4-1.2,2.6-2.6,2.6C2.3,14.6,1.2,13.5,1.2,12.1z"
			/>
	</g>
	<g>
		<circle class="st4" cx="3.1" cy="60.9" r="3.1"/>
	</g>
	<g>
		<path class="st1" d="M14.1,48.1c-0.2-0.3-0.4-0.5-0.6-0.8l0.8-0.6c0.2,0.3,0.4,0.5,0.6,0.8L14.1,48.1z M12.9,46.4
			c-0.2-0.3-0.4-0.6-0.5-0.9l0.9-0.5c0.2,0.3,0.3,0.6,0.5,0.8L12.9,46.4z M11.9,44.6c-0.2-0.3-0.3-0.6-0.4-0.9l0.9-0.4
			c0.1,0.3,0.3,0.6,0.4,0.9L11.9,44.6z M11.1,42.7c-0.1-0.3-0.2-0.6-0.3-1l1-0.3c0.1,0.3,0.2,0.6,0.3,0.9L11.1,42.7z M10.5,40.8
			c-0.1-0.3-0.2-0.7-0.2-1l1-0.2c0.1,0.3,0.1,0.6,0.2,1L10.5,40.8z M10.1,38.7c0-0.3-0.1-0.7-0.1-1l1-0.1c0,0.3,0.1,0.6,0.1,1
			L10.1,38.7z M9.9,36.7c0-0.2,0-0.4,0-0.6l0-0.4l1,0l0,0.4c0,0.2,0,0.4,0,0.6L9.9,36.7z M11,34.7l-1-0.1c0-0.3,0.1-0.7,0.1-1l1,0.1
			C11,34.1,11,34.4,11,34.7z M11.2,32.8l-1-0.2c0.1-0.3,0.1-0.7,0.2-1l1,0.2C11.3,32.1,11.3,32.5,11.2,32.8z M11.7,30.9l-1-0.3
			c0.1-0.3,0.2-0.7,0.3-1L12,30C11.8,30.3,11.7,30.6,11.7,30.9z M12.3,29.1l-0.9-0.4c0.1-0.3,0.3-0.6,0.4-0.9l0.9,0.4
			C12.6,28.5,12.4,28.8,12.3,29.1z M13.1,27.3l-0.9-0.5c0.2-0.3,0.3-0.6,0.5-0.9l0.9,0.5C13.5,26.7,13.3,27,13.1,27.3z"/>
	</g>
	<g>
		<path class="st4" d="M66.7,48.1l-0.8-0.6c0.2-0.3,0.4-0.5,0.6-0.8l0.8,0.6C67.1,47.5,66.9,47.8,66.7,48.1z M67.9,46.4L67,45.9
			c0.2-0.3,0.3-0.6,0.5-0.8l0.9,0.5C68.2,45.8,68.1,46.1,67.9,46.4z M68.9,44.6L68,44.2c0.1-0.3,0.3-0.6,0.4-0.9l0.9,0.4
			C69.2,44,69,44.3,68.9,44.6z M69.7,42.7l-0.9-0.3c0.1-0.3,0.2-0.6,0.3-0.9l1,0.3C69.9,42.1,69.8,42.4,69.7,42.7z M70.3,40.8
			l-1-0.2c0.1-0.3,0.1-0.6,0.2-1l1,0.2C70.4,40.1,70.4,40.4,70.3,40.8z M70.7,38.7l-1-0.1c0-0.3,0.1-0.6,0.1-1l1,0.1
			C70.8,38.1,70.7,38.4,70.7,38.7z M70.9,36.7l-1,0c0-0.2,0-0.4,0-0.6l0-0.4l1,0l0,0.4C70.9,36.3,70.9,36.5,70.9,36.7z M69.8,34.7
			c0-0.3-0.1-0.6-0.1-1l1-0.1c0,0.3,0.1,0.7,0.1,1L69.8,34.7z M69.6,32.8c-0.1-0.3-0.1-0.6-0.2-1l1-0.2c0.1,0.3,0.1,0.7,0.2,1
			L69.6,32.8z M69.1,30.9c-0.1-0.3-0.2-0.6-0.3-0.9l0.9-0.3c0.1,0.3,0.2,0.6,0.3,1L69.1,30.9z M68.5,29.1c-0.1-0.3-0.3-0.6-0.4-0.9
			l0.9-0.4c0.1,0.3,0.3,0.6,0.4,0.9L68.5,29.1z M67.7,27.3c-0.2-0.3-0.3-0.6-0.5-0.8l0.9-0.5c0.2,0.3,0.3,0.6,0.5,0.9L67.7,27.3z"/>
	</g>
	<g>
		<g>
			<path d="M59.7,38c0-0.6-0.5-1-1.1-0.9c-0.6,0-1,0.5-0.9,1.1c0,0.6,0.1,1.2,0,1.8c0,0.7-0.1,1.4-0.2,2c-0.1,0.5,0.3,1.1,0.8,1.2
				c0.1,0,0.1,0,0.2,0c0.5,0,0.9-0.3,1-0.8c0.1-0.8,0.2-1.5,0.3-2.3C59.8,39.4,59.8,38.7,59.7,38z M58.2,44.6
				c-0.5-0.2-1.1,0.2-1.2,0.7c-0.7,2.3-2.1,4.5-4.2,6.6c-2.7,2.8-6.8,5.4-12.4,7.9c-5.6-2.5-9.7-5.1-12.5-7.9
				c-3.1-3.1-4.6-6.3-4.6-10V22.1l17.1-8.6l17.1,8.6v9.4c0,0.6,0.4,1,1,1s1-0.4,1-1v-10c0-0.4-0.2-0.7-0.5-0.9l-18.1-9.1
				c-0.3-0.1-0.6-0.1-0.9,0l-18.1,9.1c-0.3,0.2-0.5,0.5-0.5,0.9V42c0,4.2,1.8,8,5.2,11.4c3.1,3.1,7.5,5.9,13.5,8.5
				c0.1,0.1,0.3,0.1,0.4,0.1c0.1,0,0.3,0,0.4-0.1c6.1-2.7,10.5-5.5,13.4-8.5c2.3-2.3,3.9-4.8,4.7-7.5C59.1,45.3,58.8,44.8,58.2,44.6
				z M40.4,41.1c2,0,3.5-1.5,3.7-3.7l1.4-12.2c0.1-1.2-0.3-2.4-1.2-3.4c-1-1.1-2.5-1.8-3.9-1.8s-2.9,0.7-3.9,1.8
				c-0.9,1-1.3,2.2-1.2,3.4l1.4,12.2C36.9,39.5,38.5,41.1,40.4,41.1z M38,23.2c0.6-0.7,1.5-1.1,2.4-1.1s1.7,0.4,2.4,1.1
				c0.3,0.3,0.8,1,0.7,1.9l-1.4,12.2c-0.1,0.9-0.7,1.9-1.7,1.9c-0.9,0-1.6-0.8-1.7-1.9L37.3,25C37.2,24.2,37.7,23.5,38,23.2z
				 M40.4,53.3c2.8,0,5.1-2.2,5.1-5.1c0-2.8-2.3-5.1-5.1-5.1s-5.1,2.3-5.1,5.1C35.3,51.1,37.6,53.3,40.4,53.3z M40.4,45.2
				c1.7,0,3.1,1.4,3.1,3.1c0,1.7-1.3,3.1-3.1,3.1s-3.1-1.3-3.1-3.1C37.3,46.5,38.7,45.2,40.4,45.2z"/>
		</g>
	</g>
</g>
</svg>
