<svg id="icon_watchlater" xmlns="http://www.w3.org/2000/svg" width="25.3" height="20" viewBox="0 0 25.3 20">
  <g id="Group_113" data-name="Group 113">
    <path id="Path_130" data-name="Path 130" d="M18.2,5.8a7.1,7.1,0,1,0,7.1,7.1A7.127,7.127,0,0,0,18.2,5.8Zm0,12.1a5,5,0,1,1,5-5A5.015,5.015,0,0,1,18.2,17.9Zm1-7.6a1.1,1.1,0,0,0-2.2,0V13c0,.1.1.1.1.2s.1.1.1.2.1.1.2.1l.1.1,3.2,1.8a.9.9,0,0,0,.5.1,1.05,1.05,0,0,0,.9-.5,1.012,1.012,0,0,0-.4-1.4L19.2,12ZM1.1,2.1H17.9A1.11,1.11,0,0,0,19,1a1.028,1.028,0,0,0-1.1-1H1.1A1.11,1.11,0,0,0,0,1.1,1.028,1.028,0,0,0,1.1,2.1Zm0,4.2H12.7a1.1,1.1,0,1,0,0-2.2H1.1A1.278,1.278,0,0,0,0,5.3,1.028,1.028,0,0,0,1.1,6.3Zm0,4.2H9.5a1.1,1.1,0,1,0,0-2.2H1.1A1.278,1.278,0,0,0,0,9.5,1.028,1.028,0,0,0,1.1,10.5Zm0,4.2H8.5a1.1,1.1,0,1,0,0-2.2H1.1A1.11,1.11,0,0,0,0,13.6,1.049,1.049,0,0,0,1.1,14.7Zm9.4,2.1H1.1a1.1,1.1,0,0,0,0,2.2h9.5a1.11,1.11,0,0,0,1.1-1.1A1.2,1.2,0,0,0,10.5,16.8Z" fill="#777"/>
  </g>
</svg>
