<svg xmlns="http://www.w3.org/2000/svg" width="800" height="798.812" viewBox="0 0 800 798.812">
  <defs>
    <style>
      .cls-1 {
        fill-rule: evenodd;
      }
    </style>
  </defs>
  <path id="icon_Selected_Watchlater" class="cls-1" d="M147.24,842c-19.877.122-35.785,16.745-35.24,36,0.524,18.526,16.122,33.9,35.24,34H876a35.014,35.014,0,1,0,0-70H147.24m0-270c-19.877.122-35.785,16.745-35.24,36,0.524,18.526,16.122,33.9,35.24,34H876a35.014,35.014,0,1,0,0-70H147.24m0-270c-19.877.122-35.785,16.745-35.24,36,0.524,18.526,16.122,33.9,35.24,34H490a35.014,35.014,0,1,0,0-70H147.24M562,291c-13.12-13.727-13.437-34.873-2-48,12.7-14.581,36.9-15.834,52-1l60,60L855,120c16.968-11.7,39.41-7.623,50,7,8.7,12.016,8.368,29.791-2,43L696,375.767a38.093,38.093,0,0,1-50,0Z" transform="translate(-112 -113.188)"/>
</svg>
