<svg xmlns="http://www.w3.org/2000/svg" width="520" height="520" viewBox="0 0 520 520">
  <defs>
    <style>
      .cls-1 {
        fill: #fff;
        fill-rule: evenodd;
      }
    </style>
  </defs>
  <path id="icon_watchlater" class="cls-1" d="M512,252c72.339,0.151,141.709,29.817,191,83a260.24,260.24,0,0,1,0,353c-49.242,53.39-118.56,83.366-191,84A260,260,0,0,1,512,252Zm0,52a208,208,0,0,1,0,416c-58.6-.837-114.571-25.4-154-69a210.607,210.607,0,0,1-54-139A204.888,204.888,0,0,1,512,304Zm-26,78h39V517l117,71-21,33L486,538V382Z" transform="translate(-252 -252)"/>
</svg>
