<svg xmlns="http://www.w3.org/2000/svg" width="798" height="798" viewBox="0 0 798 798">
  <defs>
    <style>
      .cls-1 {
      	fill: #f1950e;
        fill-rule: evenodd;
      }
    </style>
  </defs>
  <path id="icon_youTube" class="cls-1" d="M512,113c220.362,0,399,178.638,399,399S732.362,911,512,911,113,732.362,113,512,291.638,113,512,113ZM396,352H629c23.781-.952,48.513,2.381,69,12,13.821,6.489,22.954,15.075,27,21,2.521,3.693,6.492,13.267,9,23a158.32,158.32,0,0,1,4,22,173.909,173.909,0,0,1,1,24.008V570c0.155,19-3.41,37.4-11,54-4.952,10.829-11.153,19.325-16,24-5.391,5.2-21.815,15.159-42,20-4.729,1.134-10.93,2.181-17,3a236.839,236.839,0,0,1-24,2H396a299.408,299.408,0,0,1-34-5c-15.6-3.224-31.3-8.4-37-12-26.42-16.664-37.879-50.528-39-86V454.008A203.756,203.756,0,0,1,288,421c1.487-10.381,3.768-21.049,6-26C308.1,363.723,353.7,352.37,396,352Zm64,106V563a13.219,13.219,0,0,0,21,10l98-51a14.009,14.009,0,0,0,0-23l-98-51a15.285,15.285,0,0,0-15,1A14.827,14.827,0,0,0,460,458Z" transform="translate(-113 -113)"/>
</svg>
