<svg xmlns="http://www.w3.org/2000/svg" width="800" height="800" viewBox="0 0 800 800">
  <defs>
    <style>
      .cls-1 {
        fill: #f1950e;
        fill-rule: evenodd;
      }
    </style>
  </defs>
  <path id="icon_appStore" class="cls-1" d="M512,112A399.44,399.44,0,0,1,912,512c0.065,110.726-45.813,219.205-130,296a400.478,400.478,0,0,1-558-19c-70.7-73.485-111.994-172.539-112-277-0.006-110.666,46.289-214.764,124-289A400.626,400.626,0,0,1,512,112ZM284,488.12H403l-52,91H284A12.718,12.718,0,0,1,274,574a12.446,12.446,0,0,1-2.311-8V501A12.285,12.285,0,0,1,284,488.12Zm239,0-52,91H596l-42-91H523Zm131,0H759A13.488,13.488,0,0,1,772,501v65a12.222,12.222,0,0,1-13,13.12H700L695,566ZM468,414L333,648a11.307,11.307,0,0,0,3,16l29,17a12.77,12.77,0,0,0,18-4L519,441a12.307,12.307,0,0,0-3-17l-30-16a14.182,14.182,0,0,0-8-1A14.68,14.68,0,0,0,468,414ZM316,683l-5,44a5.69,5.69,0,0,0,2,5,5.838,5.838,0,0,0,7,0l37-25a7.5,7.5,0,0,0,0-12l-30-18a8.286,8.286,0,0,0-8,1A8.045,8.045,0,0,0,316,683ZM508,313c-3.945-11.07-2.29-19.656,1-21,3.2-1.305,9.982,3.388,15,13,24.719,38.46,48,76.494,71,116,30.415,52.238,58.672,104.192,86,158.12A22.009,22.009,0,0,1,681,590a21.376,21.376,0,0,1-2,5,56.922,56.922,0,0,1-20,13,19.58,19.58,0,0,1-23-7c-29.379-57.865-56.345-115.413-82-175C537.781,388.331,522.7,351.291,508,313ZM667,624l16-9a12.832,12.832,0,0,1,8-1,13.182,13.182,0,0,1,9,7q6.5,13,13,26a13.3,13.3,0,0,1-3,18l-12,7a13.237,13.237,0,0,1-19-4l-16-26A12.371,12.371,0,0,1,667,624Zm79,118V718c0.317-17.341-4.838-35.779-18-42a22.856,22.856,0,0,0-7-2c-11.516-.1-21.068,4.991-25,13a20.641,20.641,0,0,0-2,10,35.7,35.7,0,0,0,4,11c2.414,4.258,8.319,10.9,18,16,5.6,2.952,15.224,4.846,23,11A42.918,42.918,0,0,1,746,742Z" transform="translate(-112 -112)"/>
</svg>
