<?xml version="1.0" encoding="utf-8"?>
<!-- Generator: Adobe Illustrator 22.1.0, SVG Export Plug-In . SVG Version: 6.00 Build 0)  -->
<svg version="1.1" id="Layer_1" xmlns="http://www.w3.org/2000/svg" xmlns:xlink="http://www.w3.org/1999/xlink" x="0px" y="0px"
	 viewBox="0 0 16.1 16.1" style="enable-background:new 0 0 16.1 16.1;" xml:space="preserve">
<style type="text/css">
	.st0{fill:#ffffff;}
</style>
<path class="st0" d="M9.5,8.1l6.4-6.4c0.4-0.4,0.4-1,0-1.4s-1-0.4-1.4,0L8.1,6.7L1.7,0.3c-0.4-0.4-1-0.4-1.4,0s-0.4,1,0,1.4l6.4,6.4
	l-6.4,6.4c-0.4,0.4-0.4,1,0,1.4C0.5,16,0.7,16.1,1,16.1s0.5-0.1,0.7-0.3l6.4-6.4l6.4,6.4c0.2,0.2,0.5,0.3,0.7,0.3s0.5-0.1,0.7-0.3
	c0.4-0.4,0.4-1,0-1.4L9.5,8.1z"/>
</svg>
