<svg xmlns="http://www.w3.org/2000/svg" width="20.228" height="25" viewBox="0 0 20.228 25"><defs><style>.a{fill:#212121;fill-rule:evenodd;}</style></defs><path class="a" d="M190.689,114.962h3.928a3.4,3.4,0,0,1,6.749,0h3.906a2.976,2.976,0,0,1,1.029,5.7v13.3a2.932,2.932,0,0,1-3.059,3.032h-10.53a2.884,2.884,0,0,1-3.025-3.032v-13.3a2.968,2.968,0,0,1,1-5.7Zm5.3,0a2.025,2.025,0,0,1,3.968,0Zm-5.3,1.411a1.549,1.549,0,0,0,0,3.1h14.583a1.548,1.548,0,0,0,0-3.1Zm.364,4.5v13.087a1.651,1.651,0,0,0,1.658,1.655h10.53a1.552,1.552,0,0,0,1.659-1.655V120.874Zm2.6,4.652a.708.708,0,0,1,1.406,0v7.812a.708.708,0,0,1-1.406,0Zm3.659,0a.688.688,0,0,1,1.37,0v7.812a.688.688,0,0,1-1.37,0Zm3.624,0a.691.691,0,0,1,1.375,0v7.812a.691.691,0,0,1-1.375,0Z" transform="translate(-187.865 -111.998)"/></svg>