<svg xmlns="http://www.w3.org/2000/svg" width="910" height="631" viewBox="0 0 910 631">
  <defs>
    <style>
      .cls-1 {
        fill: #f1950e;
        fill-rule: evenodd;
      }
    </style>
  </defs>
  <path id="icon_view" class="cls-1" d="M55,512.125c36.543-94.819,100.134-176.3,184-233.092A491.1,491.1,0,0,1,450.882,199C565.567,184.8,681.593,211.3,778,275.032c86.13,56.942,151.343,140.137,187,237.093A501.626,501.626,0,0,1,828,706.2c-60.316,52.484-128.069,87.263-197,105.042a475.5,475.5,0,0,1-180.118,11A470.137,470.137,0,0,1,313,784.233C195.685,731.4,107.482,632.451,55,512.125Zm66.882,0A414.505,414.505,0,0,1,221,366.068c63.14-59.825,143.436-97.514,229.882-110.044,98.992-13.17,199.485,7.956,284.118,61.024A427.153,427.153,0,0,1,900.882,512.125C861.974,604.606,791.862,680.513,702,725.21c-77.635,38.616-165.336,51.6-251.118,38.015A414.731,414.731,0,0,1,287,705.2C213.252,659.688,156.341,592.092,121.882,512.125Zm245,0A148.521,148.521,0,0,0,404,606.163c27.043,30.454,65.467,48.007,106,49.561a148.594,148.594,0,0,0,144.382-143.6c1.379-33.558-8.621-66.6-29.382-93.036-27.645-35.206-70.614-54.079-115-53.48A145.943,145.943,0,0,0,366.882,512.125ZM510,424.091a90.572,90.572,0,0,0-86,88.034,88.916,88.916,0,0,0,86,86.035,92.911,92.911,0,0,0,87-86.035A92.385,92.385,0,0,0,510,424.091Z" transform="translate(-55 -195.25)"/>
</svg>
