<svg xmlns="http://www.w3.org/2000/svg" width="800" height="800" viewBox="0 0 800 800">
  <defs>
    <style>
      .cls-1 {
        fill: #f1950e;
        fill-rule: evenodd;
      }
    </style>
  </defs>
  <path id="icon_playStore" class="cls-1" d="M512,112A397.776,397.776,0,1,1,229,228,399.812,399.812,0,0,1,512,112ZM291.5,321V720A54.9,54.9,0,0,0,302,752L533,522,302.014,291A55.264,55.264,0,0,0,291.5,321ZM330,273L555,499l74-73L365,278A69.462,69.462,0,0,0,330,273ZM579,522l80-80,68,39c14.982,10.2,23.438,27.412,22,45a49.5,49.5,0,0,1-22.168,37l-67.75,38Zm-23,23,73,73L366,765a60.6,60.6,0,0,1-36,6Z" transform="translate(-112 -112)"/>
</svg>
