<svg id="icon_share" xmlns="http://www.w3.org/2000/svg" width="20" height="19.9" viewBox="0 0 20 19.9">
  <g id="Group_114" data-name="Group 114">
    <path id="Path_131" data-name="Path 131" d="M16.7,6.7A3.329,3.329,0,0,0,20,3.4,3.417,3.417,0,0,0,16.7,0a3.35,3.35,0,0,0,0,6.7Zm0-4.5a1.1,1.1,0,1,1-1.1,1.1A1.11,1.11,0,0,1,16.7,2.2ZM12.6,5.5a1.019,1.019,0,0,0-1.5-.3L6.2,8.3A3.192,3.192,0,0,0,3.4,6.7a3.3,3.3,0,1,0-.1,6.6,3.279,3.279,0,0,0,2.8-1.6L11,14.8a1.421,1.421,0,0,0,.6.2,1.05,1.05,0,0,0,.9-.5,1.1,1.1,0,0,0-.3-1.5L7.6,10l4.6-2.9A1.176,1.176,0,0,0,12.6,5.5ZM3.3,11.1A1.1,1.1,0,1,1,4.4,10,1.11,1.11,0,0,1,3.3,11.1Zm13.4,2.2A3.3,3.3,0,1,0,20,16.6,3.329,3.329,0,0,0,16.7,13.3Zm0,4.5a1.1,1.1,0,1,1,1.1-1.1A1.11,1.11,0,0,1,16.7,17.8Z" fill="#777"/>
  </g>
</svg>
