<?xml version="1.0" encoding="utf-8"?>
<!-- Generator: Adobe Illustrator 23.0.1, SVG Export Plug-In . SVG Version: 6.00 Build 0)  -->
<svg version="1.1" id="Layer_1" xmlns="http://www.w3.org/2000/svg" xmlns:xlink="http://www.w3.org/1999/xlink" x="0px" y="0px"
	 width="16px" height="11px" viewBox="0 0 16 11" style="enable-background:new 0 0 16 11;" xml:space="preserve">
<style type="text/css">
	.st0{fill:#999999;}
	.st1{fill:#333333;}
	.st2{fill:#FFFFFF;}
</style>
<path class="st0" d="M15.8,5.3c-0.6-1.5-1.6-2.7-2.8-3.7l-0.8,0.7c1.1,0.8,2,1.8,2.6,3.2c-0.7,1.8-2.2,3.2-3.9,3.9
	c-2.1,0.9-4.5,0.7-6.4-0.3L3.7,9.8C5,10.6,6.5,11,8,11c3.4,0,6.5-2.1,7.8-5.3l0.1-0.2L15.8,5.3z M3.8,8.7c-1.1-0.8-2-1.8-2.6-3.2
	C2,3.7,3.4,2.3,5.1,1.6c2.1-0.9,4.5-0.7,6.4,0.3l0.8-0.7c-0.4-0.2-0.8-0.4-1.2-0.6C6.8-1.1,1.9,1,0.2,5.3L0.1,5.5l0.1,0.2
	C0.8,7.2,1.8,8.4,3,9.4L3.8,8.7z M8,7C7.7,7,7.4,6.9,7.2,6.8L6.4,7.4C6.9,7.8,7.4,8,8,8c1.4,0,2.5-1.1,2.5-2.5
	c0-0.5-0.1-0.9-0.4-1.3L9.3,4.9C9.4,5,9.5,5.3,9.5,5.5C9.5,6.3,8.8,7,8,7z M8,4c0.3,0,0.6,0.1,0.8,0.2l0.8-0.7C9.1,3.2,8.6,3,8,3
	C6.6,3,5.5,4.1,5.5,5.5c0,0.5,0.1,0.9,0.4,1.3l0.8-0.7C6.6,6,6.5,5.7,6.5,5.5C6.5,4.7,7.2,4,8,4z M13.6,0.3L2.2,10.4l0.2,0.2
	l11.4-10L13.6,0.3z"/>
<polygon class="st1" points="13.9,0 1.9,10.7 2.1,10.9 14.1,0.3 "/>
<polygon class="st2" points="13.2,0.1 2.1,10.1 2.3,10.3 13.4,0.4 "/>
<polygon class="st2" points="13.7,0.6 2.5,10.6 2.7,10.8 13.9,0.9 "/>
</svg>
