<svg xmlns="http://www.w3.org/2000/svg" width="910" height="631" viewBox="0 0 910 631">
  <defs>
    <style>
      .cls-1 {
        fill: #f1950e;
        fill-rule: evenodd;
      }
    </style>
  </defs>
  <path id="icon_hide" class="cls-1" d="M55,511.764C128.257,345.746,274.65,220.817,451,198c101.363-13.116,203.336,9.041,294,58.956L809,200l42,45.966-49,43.967A562.605,562.605,0,0,1,965,511.764c-47.108,123.568-141.559,224.01-264,275.795-140.048,59.231-299.338,47.555-431-26.98l-62,56.958-38-41.969L219,731.6A609.712,609.712,0,0,1,55,511.764Zm67,0c41.5-98.18,117.57-177.975,215-221.835,115.823-52.14,248.53-47.616,362,7.994l-103,93.93A143.461,143.461,0,0,0,369,492.778a149.036,149.036,0,0,0,17,87.935L265,691.63A408.084,408.084,0,0,1,122,511.764ZM316,719.61l108-96.928a139.161,139.161,0,0,0,195-16.988A145.915,145.915,0,0,0,634,436.82L755,328.9A412.4,412.4,0,0,1,901,511.764C846.147,633.532,740.069,726.658,609,757.581,509.908,780.961,406.361,766.308,316,719.61ZM433,538.744A85.01,85.01,0,0,1,550,432.823Zm33,46.965c42.316,21.01,90.659,9.266,114-22.983,18.043-24.928,18.541-57.837,7-84.937Z" transform="translate(-55 -194.281)"/>
</svg>
