<svg xmlns="http://www.w3.org/2000/svg" width="800" height="800" viewBox="0 0 800 800">
  <defs>
    <style>
      .cls-1 {
        fill: #f1950e;
        fill-rule: evenodd;
      }
    </style>
  </defs>
  <path id="icon_twitter" class="cls-1" d="M512,112A397.776,397.776,0,1,1,229,228,399.812,399.812,0,0,1,512,112ZM319,347a264.506,264.506,0,0,0,190,96c-8.726-44.213,14.119-87.891,53-105,34.309-15.1,76.005-7.219,104,21a153.809,153.809,0,0,0,58-22,88.5,88.5,0,0,1-40,51,153.524,153.524,0,0,0,52-15,205.656,205.656,0,0,1-45,49c1.484,108.8-59.706,206.171-153,249-80.876,37.128-174.323,28.479-249-17a190.9,190.9,0,0,0,135-39,91.918,91.918,0,0,1-86-63,76.308,76.308,0,0,0,41-3,89.359,89.359,0,0,1-73-91,87.7,87.7,0,0,0,41,12A94.3,94.3,0,0,1,319,347Z" transform="translate(-112 -112)"/>
</svg>
