<svg xmlns="http://www.w3.org/2000/svg" width="800.063" height="799.75" viewBox="0 0 800.063 799.75">
  <defs>
    <style>
      .cls-1 {
      	fill: #fff;
        fill-rule: evenodd;
      }
    </style>
  </defs>
  <path id="icon_Selected_Watchlater" class="cls-1" d="M153,827H873c21.831,1.786,38.806,19.316,40,40,1.295,22.434-16.289,42.979-40,45H153A42.578,42.578,0,0,1,153,827Zm0-285H873c21.831,1.786,38.806,19.316,40,40,1.295,22.434-16.289,42.979-40,45H153A42.578,42.578,0,0,1,153,542Zm0-285H429c21.831,1.786,38.806,19.316,40,40,1.3,22.434-16.289,42.979-40,45H153A42.578,42.578,0,0,1,153,257Zm410,35c-14.96-18.467-12.249-45.431,5-60,16.066-13.569,40.827-13.07,57,2l53,53L840,124c16.951-16.153,44.005-15.534,60,1,15.632,16.159,15.788,42.44,0,59L705,379.481a44.39,44.39,0,0,1-55,0Z" transform="translate(-113 -112.25)"/>
</svg>
