<?xml version="1.0" encoding="utf-8"?>
<!-- Generator: Adobe Illustrator 22.1.0, SVG Export Plug-In . SVG Version: 6.00 Build 0)  -->
<svg version="1.1" id="Isolation_Mode" xmlns="http://www.w3.org/2000/svg" xmlns:xlink="http://www.w3.org/1999/xlink" x="0px"
	 y="0px" viewBox="0 0 32 32" style="enable-background:new 0 0 32 32;" xml:space="preserve">
<style type="text/css">
	.st0{fill:#fff;}
</style>
<path class="st0" d="M17.4,16l5.1-5.1c0.3-0.4,0.3-0.9,0-1.3l0,0c-0.2-0.2-0.5-0.3-0.7-0.3c-0.2,0-0.5,0.1-0.6,0.3l-5.1,5.1
	l-5.2-5.3c-0.2-0.2-0.4-0.3-0.7-0.3c-0.2,0-0.5,0.1-0.6,0.3c-0.2,0.2-0.3,0.4-0.3,0.7c0,0.2,0.1,0.5,0.3,0.6l5.2,5.3l-5.3,5.3
	c-0.2,0.2-0.3,0.4-0.3,0.7c0,0.2,0.1,0.5,0.3,0.6c0.1,0.1,0.3,0.3,0.6,0.3c0.3,0,0.5-0.1,0.6-0.3l5.3-5.3l5.1,5.1
	c0.2,0.2,0.4,0.3,0.6,0.3c0.3,0,0.5-0.1,0.6-0.3c0.2-0.2,0.3-0.4,0.3-0.7c0-0.2-0.1-0.5-0.3-0.6L17.4,16z M16,0C7.2,0,0,7.2,0,16
	s7.2,16,16,16s16-7.2,16-16S24.8,0,16,0z M16,30C8.3,30,2,23.7,2,16S8.3,2,16,2s14,6.3,14,14S23.7,30,16,30z"/>
</svg>
