<?xml version="1.0" encoding="utf-8"?>
<!-- Generator: Adobe Illustrator 22.1.0, SVG Export Plug-In . SVG Version: 6.00 Build 0)  -->
<svg version="1.1" id="Layer_1" xmlns="http://www.w3.org/2000/svg" xmlns:xlink="http://www.w3.org/1999/xlink" x="0px" y="0px"
	 viewBox="0 0 24 24.4" style="enable-background:new 0 0 24 24.4;" xml:space="preserve">
<style type="text/css">
	.st0{fill:#FFFFFF;}
</style>
<path class="st0" d="M2.1,8.1l5.6,0.2c0,0,0,0,0.1,0C8.4,8.4,9,7.8,9,7.2c0-0.7-0.5-1.3-1.2-1.3L3.4,5.7l0.2-4.4
	C3.6,0.6,3.1,0,2.4,0C1.8,0,1.1,0.5,1.1,1.2L0.9,6.8c0,0.3,0.1,0.6,0.3,0.9C1.4,8,1.7,8.1,2.1,8.1z M11.9,0.2
	c-2.3,0-4.5,0.6-6.5,1.9C4.8,2.5,4.7,3.2,5,3.8c0.4,0.6,1.1,0.8,1.7,0.4c1.5-1,3.3-1.5,5.2-1.5c5.3,0,9.6,4.3,9.6,9.6
	s-4.3,9.6-9.6,9.6c-4.6,0-8.5-3.2-9.4-7.7c-0.1-0.7-0.8-1.1-1.5-1c-0.7,0.1-1.1,0.8-1,1.5c1.1,5.6,6.1,9.7,11.9,9.7
	C18.6,24.4,24,19,24,12.3C24,5.6,18.6,0.2,11.9,0.2z M10.2,16.1V8.3h-1L7.4,9.5V11l1.3-0.8v5.9H10.2z M13.9,16.2c0.9,0,1.5-0.3,2-1
	c0.4-0.6,0.7-1.6,0.7-3c0-1.4-0.2-2.4-0.7-3c-0.4-0.6-1.1-1-2-1s-1.5,0.3-2,1c-0.4,0.6-0.7,1.6-0.7,3c0,1.4,0.2,2.4,0.7,3
	C12.4,15.9,13.1,16.2,13.9,16.2z M12.9,10.6c0.1-0.4,0.2-0.7,0.4-0.8c0.2-0.2,0.4-0.2,0.6-0.2s0.5,0.1,0.6,0.2
	c0.2,0.2,0.3,0.4,0.4,0.8c0.1,0.4,0.1,0.9,0.1,1.6s0,1.2-0.1,1.6c-0.1,0.4-0.2,0.7-0.4,0.8c-0.2,0.2-0.4,0.2-0.6,0.2
	s-0.5-0.1-0.6-0.2s-0.3-0.4-0.4-0.8s-0.1-0.9-0.1-1.6C12.8,11.5,12.9,11,12.9,10.6z"/>
</svg>
