<svg xmlns="http://www.w3.org/2000/svg" width="49.937" height="50" viewBox="0 0 49.937 50"><defs><style>.a{fill:#eee;fill-rule:evenodd;}</style></defs><path class="a" d="M153.077,124.263l-3.859-.872a2.071,2.071,0,1,0-.871,4.047l7.843,1.743a2.195,2.195,0,0,0,2.926-1.743l1.805-8.281a2.133,2.133,0,0,0-4.17-.872l-.623,3.051A25.3,25.3,0,0,0,135.773,111,24.745,24.745,0,0,0,111.5,131.423a2.115,2.115,0,0,0,4.108.934,20.47,20.47,0,0,1,20.16-17.123A21.325,21.325,0,0,1,153.077,124.263Zm-37.845,13.512a2.158,2.158,0,0,0-4.233.249,22,22,0,0,0,1.805,7.659,2.153,2.153,0,0,0,3.984-1.557A27.231,27.231,0,0,1,115.233,137.775Zm4.606,11.083a2.1,2.1,0,0,0-3.424,2.366,21.854,21.854,0,0,0,5.851,5.479,2.067,2.067,0,0,0,2.365-3.362A22.3,22.3,0,0,1,119.839,148.858Zm9.15,6.849a2.054,2.054,0,0,0-1,3.923,22.984,22.984,0,0,0,7.774,1.37,2.133,2.133,0,0,0,0-4.234A28.271,28.271,0,0,1,128.989,155.707Zm12.324.311a2.164,2.164,0,0,0-1.307,2.117,2.191,2.191,0,0,0,2.179,1.93,18.636,18.636,0,0,0,7.718-3.487,2.167,2.167,0,0,0-1.867-3.362,37.882,37.882,0,0,1-3.735,1.743c-.985.4-1.973.746-2.988,1.059Zm9.835-5.915a2.126,2.126,0,0,0,3.3,2.615,13.809,13.809,0,0,0,2.614-3.611,2.111,2.111,0,0,0-3.423-2.179c-.39.528-.778,1.04-1.183,1.557-.431.55-.86,1.082-1.307,1.619Z" transform="translate(-111 -111)"/></svg>