<svg xmlns="http://www.w3.org/2000/svg" width="49.954" height="50" viewBox="0 0 49.954 50"><defs><style>.a{fill:#eee;fill-rule:evenodd;}</style></defs><path class="a" d="M118.6,158.263l3.861-.872a2.071,2.071,0,1,1,.872,4.047l-7.846,1.743a2.2,2.2,0,0,1-2.927-1.743l-1.806-8.281a2.134,2.134,0,0,1,4.172-.872l.623,3.051A25.316,25.316,0,0,1,135.912,145,24.752,24.752,0,0,1,160.2,165.423a2.116,2.116,0,0,1-4.11.934,20.475,20.475,0,0,0-20.167-17.123A21.335,21.335,0,0,0,118.6,158.263Zm37.858,13.512a2.159,2.159,0,0,1,4.234.249,21.994,21.994,0,0,1-1.806,7.659,2.154,2.154,0,0,1-3.985-1.557A27.221,27.221,0,0,0,156.46,171.775Zm-4.608,11.083a2.1,2.1,0,0,1,3.425,2.366,21.858,21.858,0,0,1-5.853,5.479,2.067,2.067,0,0,1-2.366-3.362A22.307,22.307,0,0,0,151.853,182.858Zm-9.153,6.849a2.054,2.054,0,0,1,1,3.923,23,23,0,0,1-7.776,1.37,2.133,2.133,0,0,1,0-4.234,28.291,28.291,0,0,0,6.78-1.059Zm-12.329.311a2.164,2.164,0,0,1,1.308,2.117,2.191,2.191,0,0,1-2.179,1.93,18.644,18.644,0,0,1-7.721-3.487,2.167,2.167,0,0,1,1.868-3.362,37.914,37.914,0,0,0,3.736,1.743C128.367,189.356,129.356,189.706,130.371,190.019Zm-9.838-5.915a2.126,2.126,0,0,1-3.3,2.615,13.81,13.81,0,0,1-2.615-3.611,2.112,2.112,0,0,1,3.425-2.179c.39.528.778,1.04,1.183,1.557C119.656,183.035,120.085,183.566,120.533,184.1Z" transform="translate(-110.741 -145)"/></svg>