<?xml version="1.0" encoding="utf-8"?>
<!-- Generator: Adobe Illustrator 22.1.0, SVG Export Plug-In . SVG Version: 6.00 Build 0)  -->
<svg version="1.1" id="Layer_1" xmlns="http://www.w3.org/2000/svg" xmlns:xlink="http://www.w3.org/1999/xlink" x="0px" y="0px"
	 viewBox="0 0 20 16" style="enable-background:new 0 0 20 16;" xml:space="preserve">
<style type="text/css">
	.st0{fill:url(#SVGID_1_);}
	.st1{fill:url(#SVGID_2_);}
	.st2{fill:url(#SVGID_3_);}
	.st3{fill:#FFFFFF;}
</style>
<g>
	
		<linearGradient id="SVGID_1_" gradientUnits="userSpaceOnUse" x1="1.9289" y1="1.9482" x2="18.0512" y2="18.0704" gradientTransform="matrix(1 0 0 -1 0 18)">
		<stop  offset="0" style="stop-color:#D51F53"/>
		<stop  offset="1" style="stop-color:#F15A22"/>
	</linearGradient>
	<path class="st0" d="M17,0H3C1.3,0,0,1.5,0,3.4v9.1C0,14.4,1.3,16,3,16h14c1.7,0,3-1.6,3-3.4V3.4C20,1.5,18.7,0,17,0z M8.8,10.8
		L8.3,8.9H6.1l-0.6,1.9h-1l1.9-6.7H8l1.9,6.7H8.8z M14.9,9.4c-0.2,0.5-0.6,0.9-1.1,1.1c-0.5,0.2-1.1,0.4-1.8,0.4
		c-0.5,0-0.9,0-1.5-0.1V4.3c0.6-0.1,1.1-0.2,1.6-0.2c1,0,1.8,0.3,2.3,0.8c0.5,0.6,0.8,1.4,0.8,2.6C15.2,8.3,15.1,8.9,14.9,9.4z"/>
	
		<linearGradient id="SVGID_2_" gradientUnits="userSpaceOnUse" x1="0.4081" y1="4.3581" x2="15.6456" y2="19.5956" gradientTransform="matrix(1 0 0 -1 0 18)">
		<stop  offset="0" style="stop-color:#D51F53"/>
		<stop  offset="1" style="stop-color:#F15A22"/>
	</linearGradient>
	<polygon class="st1" points="6.3,8 8,8 7.2,4.9 	"/>
	
		<linearGradient id="SVGID_3_" gradientUnits="userSpaceOnUse" x1="3.3212" y1="1.4413" x2="18.5587" y2="16.6788" gradientTransform="matrix(1 0 0 -1 0 18)">
		<stop  offset="0" style="stop-color:#D51F53"/>
		<stop  offset="1" style="stop-color:#F15A22"/>
	</linearGradient>
	<path class="st2" d="M13.3,5.3C13,5.1,12.7,5,12.2,5c-0.2,0-0.4,0-0.6,0.1V10c0.2,0,0.4,0,0.6,0c0.4,0,0.8-0.1,1-0.2
		c0.3-0.2,0.5-0.4,0.6-0.8C13.9,8.6,14,8.2,14,7.6s-0.1-1.1-0.2-1.4C13.8,5.7,13.5,5.4,13.3,5.3z"/>
	<path class="st3" d="M6.4,4.2l-1.9,6.6h1.1l0.5-1.9h2.2l0.5,1.9h1.1L8,4.2H6.4z M6.3,8l0.8-3L8,8H6.3z"/>
	<path class="st3" d="M12.1,4.1c-0.5,0-1.1,0.1-1.6,0.2v6.5c0.5,0.1,1,0.1,1.5,0.1c0.7,0,1.3-0.1,1.8-0.4c0.5-0.2,0.8-0.6,1.1-1.1
		c0.2-0.5,0.4-1.1,0.4-1.9c0-1.2-0.3-2-0.8-2.6C14,4.4,13.2,4.1,12.1,4.1z M13.9,8.9c-0.1,0.4-0.3,0.6-0.6,0.8
		C13,9.9,12.6,10,12.2,10c-0.2,0-0.4,0-0.6,0V5.1C11.8,5,12,5,12.2,5c0.4,0,0.8,0.1,1,0.2c0.3,0.2,0.5,0.4,0.6,0.8S14,6.8,14,7.4
		C14.1,8.1,14,8.6,13.9,8.9z"/>
</g>
</svg>
