<svg xmlns="http://www.w3.org/2000/svg" width="29.962" height="30" viewBox="0 0 29.962 30">
  <g id="icon_forword" transform="translate(-883 -359)">
    <path id="icon_forword-2" data-name="icon_forword" d="M136.246,118.958l-2.316-.523a1.243,1.243,0,1,0-.523,2.428l4.706,1.046a1.317,1.317,0,0,0,1.755-1.046l1.083-4.969a1.28,1.28,0,0,0-2.5-.523l-.374,1.831a15.183,15.183,0,0,0-12.212-6.2A14.847,14.847,0,0,0,111.3,123.254a1.269,1.269,0,0,0,2.465.56,12.282,12.282,0,0,1,12.1-10.274A12.8,12.8,0,0,1,136.246,118.958Zm-22.707,8.107a1.3,1.3,0,0,0-2.54.149,13.2,13.2,0,0,0,1.083,4.6,1.292,1.292,0,0,0,2.39-.934A16.339,16.339,0,0,1,113.54,127.065Zm2.764,6.65a1.26,1.26,0,0,0-2.054,1.42,13.112,13.112,0,0,0,3.511,3.288,1.24,1.24,0,0,0,1.419-2.017A13.383,13.383,0,0,1,116.3,133.715Zm5.49,4.11a1.232,1.232,0,0,0-.6,2.354,13.791,13.791,0,0,0,4.664.822,1.28,1.28,0,0,0,0-2.54A16.962,16.962,0,0,1,121.793,137.824Zm7.395.187a1.3,1.3,0,0,0-.784,1.27,1.314,1.314,0,0,0,1.307,1.158,11.181,11.181,0,0,0,4.631-2.092,1.3,1.3,0,0,0-1.12-2.017,22.726,22.726,0,0,1-2.241,1.046c-.591.238-1.184.448-1.793.635Zm5.9-3.549a1.275,1.275,0,0,0,1.979,1.569,8.286,8.286,0,0,0,1.569-2.167,1.267,1.267,0,0,0-2.054-1.308c-.234.317-.467.624-.71.934-.259.33-.516.649-.784.971Z" transform="translate(772 248)" fill="#eee" fill-rule="evenodd"/>
    <text id="_10" data-name="10" transform="translate(890 380)" fill="#eee" font-size="14" font-family="OpenSans-Semibold, Open Sans" font-weight="600"><tspan x="0" y="0">10</tspan></text>
  </g>
</svg>
