<?xml version="1.0" encoding="utf-8"?>
<!-- Generator: Adobe Illustrator 22.1.0, SVG Export Plug-In . SVG Version: 6.00 Build 0)  -->
<svg version="1.1" id="Layer_1" xmlns="http://www.w3.org/2000/svg" xmlns:xlink="http://www.w3.org/1999/xlink" x="0px" y="0px"
	 viewBox="0 0 30 30.6" style="enable-background:new 0 0 30 30.6;" xml:space="preserve">
<style type="text/css">
	.st0{fill:#FFFFFF;}
</style>
<path class="st0" d="M27.4,10.2l-7,0.2c0,0,0,0-0.1,0c-0.9,0-1.5-0.6-1.5-1.5c0-0.9,0.6-1.6,1.5-1.6l5.5-0.2l-0.2-5.5
	C25.5,0.7,26.1,0,27,0c0.7,0,1.6,0.6,1.6,1.5l0.2,7c0,0.4-0.1,0.7-0.4,1.1C28.2,10.1,27.9,10.2,27.4,10.2z M15.1,0.4
	c2.9,0,5.6,0.7,8.1,2.4c0.7,0.5,0.9,1.4,0.5,2.1c-0.5,0.7-1.4,1-2.1,0.5c-1.9-1.2-4.1-1.9-6.5-1.9c-6.6,0-12,5.4-12,12s5.4,12,12,12
	c5.7,0,10.6-4,11.7-9.6c0.1-0.9,1-1.4,1.9-1.2s1.4,1,1.2,1.9c-1.4,7-7.6,12.1-14.9,12.1C6.7,30.6,0,23.9,0,15.5S6.7,0.4,15.1,0.4z
	 M12.7,20.2v-9.7h-1.2L9.2,12v1.9l1.6-1v7.4H12.7z M17.4,20.4c1.1,0,1.9-0.4,2.5-1.2c0.5-0.7,0.9-2,0.9-3.7s-0.2-3-0.9-3.7
	c-0.5-0.7-1.4-1.2-2.5-1.2c-1.1,0-1.9,0.4-2.5,1.2c-0.5,0.7-0.9,2-0.9,3.7s0.2,3,0.9,3.7C15.5,20,16.4,20.4,17.4,20.4z M16.1,13.4
	c0.1-0.5,0.2-0.9,0.5-1c0.2-0.2,0.5-0.2,0.7-0.2c0.2,0,0.6,0.1,0.7,0.2c0.2,0.2,0.4,0.5,0.5,1c0.1,0.5,0.1,1.1,0.1,2s0,1.5-0.1,2
	c-0.1,0.5-0.2,0.9-0.5,1c-0.2,0.2-0.5,0.2-0.7,0.2c-0.2,0-0.6-0.1-0.7-0.2c-0.1-0.1-0.4-0.5-0.5-1c-0.1-0.5-0.1-1.1-0.1-2
	C16,14.5,16.1,13.9,16.1,13.4z"/>
</svg>
