<?xml version="1.0" encoding="utf-8"?>
<!-- Generator: Adobe Illustrator 22.1.0, SVG Export Plug-In . SVG Version: 6.00 Build 0)  -->
<svg version="1.1" id="Layer_1" xmlns="http://www.w3.org/2000/svg" xmlns:xlink="http://www.w3.org/1999/xlink" x="0px" y="0px"
	 viewBox="0 0 30 30.5" style="enable-background:new 0 0 30 30.5;" xml:space="preserve">
<style type="text/css">
	.st0{fill:#FFFFFF;}
</style>
<path class="st0" d="M2.6,10.1l7,0.2c0,0,0,0,0.1,0c0.7,0.1,1.5-0.6,1.5-1.4c0-0.9-0.6-1.6-1.5-1.6L4.3,7.1l0.2-5.5
	C4.5,0.7,3.9,0,3,0C2.3,0,1.4,0.6,1.4,1.5l-0.2,7c0,0.4,0.1,0.7,0.4,1.1C1.8,10,2.1,10.1,2.6,10.1z M14.9,0.2C12,0.2,9.3,1,6.8,2.6
	C6,3.1,5.9,4,6.3,4.7c0.5,0.7,1.4,1,2.1,0.5c1.9-1.2,4.1-1.9,6.5-1.9c6.6,0,12,5.4,12,12s-5.4,12-12,12c-5.7,0-10.6-4-11.7-9.6
	c-0.1-0.9-1-1.4-1.9-1.2c-0.9,0.1-1.4,1-1.2,1.9c1.4,7,7.6,12.1,14.9,12.1c8.4,0,15.1-6.7,15.1-15.1S23.3,0.2,14.9,0.2z M12.8,20.1
	v-9.7h-1.2l-2.2,1.5v1.9l1.6-1v7.4H12.8z M17.4,20.2c1.1,0,1.9-0.4,2.5-1.2c0.5-0.7,0.9-2,0.9-3.7s-0.2-3-0.9-3.7
	c-0.5-0.7-1.4-1.2-2.5-1.2c-1.1,0-1.9,0.4-2.5,1.2c-0.5,0.7-0.9,2-0.9,3.7s0.2,3,0.9,3.7C15.5,19.9,16.4,20.2,17.4,20.2z M16.1,13.2
	c0.1-0.5,0.2-0.9,0.5-1c0.2-0.2,0.5-0.2,0.7-0.2c0.2,0,0.6,0.1,0.7,0.2c0.2,0.2,0.4,0.5,0.5,1c0.1,0.5,0.1,1.1,0.1,2s0,1.5-0.1,2
	s-0.2,0.9-0.5,1c-0.2,0.2-0.5,0.2-0.7,0.2c-0.2,0-0.6-0.1-0.7-0.2c-0.1-0.1-0.4-0.5-0.5-1c-0.1-0.5-0.1-1.1-0.1-2
	C16,14.4,16.1,13.7,16.1,13.2z"/>
</svg>
