<?xml version="1.0" encoding="utf-8"?>
<!-- Generator: Adobe Illustrator 22.1.0, SVG Export Plug-In . SVG Version: 6.00 Build 0)  -->
<svg version="1.1" id="Layer_1" xmlns="http://www.w3.org/2000/svg" xmlns:xlink="http://www.w3.org/1999/xlink" x="0px" y="0px"
	 viewBox="0 0 25 20" style="enable-background:new 0 0 25 20;" xml:space="preserve">
<style type="text/css">
	.st0{fill:#FFFFFF;}
</style>
<path class="st0" d="M10.6,8.4c0.8,0,1.2-0.5,1.2-1.2s-0.5-1.2-1.2-1.2h-5c-0.8,0-1.2,0.5-1.2,1.2v6.2c0,0.8,0.5,1.2,1.2,1.2h5
	c0.8,0,1.2-0.5,1.2-1.2c0-0.8-0.5-1.2-1.2-1.2H6.9V8.4H10.6z M20,0H5C2.2,0,0,2.2,0,5v10c0,2.8,2.2,5,5,5h15c2.8,0,5-2.2,5-5V5
	C25,2.2,22.8,0,20,0z M22.5,15c0,1.4-1.1,2.5-2.5,2.5H5c-1.4,0-2.5-1.1-2.5-2.5V5c0-1.4,1.1-2.5,2.5-2.5h15c1.4,0,2.5,1.1,2.5,2.5
	V15z M19.4,8.4c0.8,0,1.2-0.5,1.2-1.2s-0.5-1.2-1.2-1.2h-5c-0.8,0-1.2,0.5-1.2,1.2v6.2c0,0.8,0.5,1.2,1.2,1.2h5
	c0.8,0,1.2-0.5,1.2-1.2c0-0.8-0.5-1.2-1.2-1.2h-3.8V8.4H19.4z"/>
</svg>
