<?xml version="1.0" encoding="utf-8"?>
<!-- Generator: Adobe Illustrator 22.1.0, SVG Export Plug-In . SVG Version: 6.00 Build 0)  -->
<svg version="1.1" id="Layer_1" xmlns="http://www.w3.org/2000/svg" xmlns:xlink="http://www.w3.org/1999/xlink" x="0px" y="0px"
	 viewBox="0 0 20 20" style="enable-background:new 0 0 20 20;" xml:space="preserve">
<style type="text/css">
	.st0{fill:#FFFFFF;}
</style>
<path class="st0" d="M17.7,8.9L20,7.3l-1.1-2.7l-2.5,0.4l-1.3-1.3V0.9L12.5,0l-1.7,2.1H9.2L7.5,0L4.9,1.1v2.8L3.6,5.2L1.1,4.9L0,7.3
	l2,1.6v2l-2,1.9l0.9,2.3h2.9l1.1,1.3l-0.3,2.5L7.5,20l1.5-2h2.1l1.5,2l2.7-1.1l-0.3-2.5l1.2-1.2h2.8l0.9-2.3l-2.1-1.9
	C17.7,11.1,17.7,8.9,17.7,8.9z M10,14.4c-2.4,0-4.4-2-4.4-4.4s2-4.4,4.4-4.4s4.4,2,4.4,4.4S12.4,14.4,10,14.4z"/>
</svg>
