<?xml version="1.0" encoding="utf-8"?>
<!-- Generator: Adobe Illustrator 22.1.0, SVG Export Plug-In . SVG Version: 6.00 Build 0)  -->
<svg version="1.1" id="Layer_1" xmlns="http://www.w3.org/2000/svg" xmlns:xlink="http://www.w3.org/1999/xlink" x="0px" y="0px"
	 viewBox="0 0 20 20" style="enable-background:new 0 0 20 20;" xml:space="preserve">
<style type="text/css">
	.st0{fill:#FFFFFF;}
</style>
<path class="st0" d="M12.5,5.6c-0.3-0.4-0.8-0.5-1.3-0.3L6,8.6c-0.5-1-1.6-1.8-2.8-1.8C1.4,6.8,0,8.2,0,10s1.4,3.2,3.2,3.2
	c1.2,0,2.3-0.7,2.8-1.8l5.2,3.3c0.2,0.1,0.3,0.1,0.5,0.1c0.3,0,0.6-0.1,0.8-0.4c0.3-0.4,0.1-1-0.3-1.3l-5-3.2l5-3.2
	C12.6,6.5,12.7,6,12.5,5.6z M3.2,11.4c-0.8,0-1.4-0.6-1.4-1.4s0.6-1.4,1.4-1.4S4.5,9.2,4.5,10S3.9,11.4,3.2,11.4z M16.8,6.4
	c1.8,0,3.2-1.4,3.2-3.2S18.6,0,16.8,0c-1.8,0-3.2,1.4-3.2,3.2S15.1,6.4,16.8,6.4z M16.8,1.8c0.8,0,1.4,0.6,1.4,1.4s-0.6,1.4-1.4,1.4
	s-1.4-0.6-1.4-1.4S16.1,1.8,16.8,1.8z M16.8,13.6c-1.8,0-3.2,1.4-3.2,3.2s1.4,3.2,3.2,3.2c1.8,0,3.2-1.4,3.2-3.2
	S18.6,13.6,16.8,13.6z M16.8,18.2c-0.8,0-1.4-0.6-1.4-1.4s0.6-1.4,1.4-1.4s1.4,0.6,1.4,1.4S17.6,18.2,16.8,18.2z"/>
</svg>
