<?xml version="1.0" encoding="utf-8"?>
<!-- Generator: Adobe Illustrator 22.1.0, SVG Export Plug-In . SVG Version: 6.00 Build 0)  -->
<svg version="1.1" id="Layer_1" xmlns="http://www.w3.org/2000/svg" xmlns:xlink="http://www.w3.org/1999/xlink" x="0px" y="0px"
	 viewBox="0 0 23 20" style="enable-background:new 0 0 23 20;" xml:space="preserve">
<style type="text/css">
	.st0{fill:#FFFFFF;}
</style>
<path class="st0" d="M11.7,0.1c-0.5-0.2-0.9-0.1-1.2,0.2L5.2,5.6H1.1C0.5,5.6,0,6,0,6.7v6.7c0,0.7,0.5,1.1,1.1,1.1h4.1l5.3,5.2
	c0.2,0.2,0.5,0.3,0.8,0.3c0.1,0,0.3,0,0.5-0.1c0.5-0.2,0.7-0.6,0.7-1V1.1C12.4,0.7,12.2,0.2,11.7,0.1z M10.1,16.2l-3.7-3.7
	c-0.2-0.2-0.5-0.3-0.8-0.3H2.3V7.8h3.4c0.3,0,0.6-0.1,0.8-0.3l3.7-3.7V16.2z M14.9,0.2c-0.6-0.1-1.2,0.2-1.4,0.9
	c-0.1,0.7,0.2,1.2,0.9,1.3c3.6,0.7,6.3,3.9,6.3,7.6s-2.6,6.9-6.3,7.7c-0.6,0.1-1,0.7-0.9,1.2c0.1,0.6,0.6,0.9,1.1,0.9
	c0.1,0,0.1,0,0.2,0c4.7-1,8.1-5.1,8.1-9.8S19.6,1.1,14.9,0.2z M14.4,11.7c-0.6,0.1-1,0.7-0.9,1.3c0.1,0.6,0.6,0.9,1.1,0.9
	c0.1,0,0.1,0,0.2,0c1.8-0.4,3.2-2,3.2-3.9s-1.4-3.4-3.2-3.8c-0.6-0.1-1.2,0.2-1.4,0.9c-0.1,0.6,0.2,1.2,0.9,1.3
	c0.8,0.1,1.4,0.8,1.4,1.6C15.8,10.8,15.2,11.4,14.4,11.7z"/>
</svg>
