<?xml version="1.0" encoding="utf-8"?>
<!-- Generator: Adobe Illustrator 22.1.0, SVG Export Plug-In . SVG Version: 6.00 Build 0)  -->
<svg version="1.1" id="Layer_1" xmlns="http://www.w3.org/2000/svg" xmlns:xlink="http://www.w3.org/1999/xlink" x="0px" y="0px"
	 viewBox="0 0 26.6 21" style="enable-background:new 0 0 26.6 21;" xml:space="preserve">
<style type="text/css">
	.st0{fill:#FFFFFF;}
</style>
<path class="st0" d="M19.2,6.2c-4.1,0-7.4,3.3-7.4,7.4c0,4.1,3.3,7.4,7.4,7.4c4.1,0,7.4-3.3,7.4-7.4C26.6,9.5,23.3,6.2,19.2,6.2z
	 M19.2,19.2c-3.1,0-5.6-2.5-5.6-5.6c0-3.1,2.5-5.6,5.6-5.6c3.1,0,5.6,2.5,5.6,5.6C24.8,16.7,22.3,19.2,19.2,19.2z M23.1,14.5
	l-2.9-1.7v-2c0-0.5-0.4-0.9-0.9-0.9c-0.5,0-0.9,0.4-0.9,0.9v2.5c0,0,0,0.1,0,0.1c0,0.1,0,0.1,0,0.2c0,0.1,0,0.1,0.1,0.2
	c0,0,0.1,0.1,0.1,0.1c0,0,0.1,0.1,0.1,0.1c0,0,0,0.1,0.1,0.1l3.4,2c0.1,0.1,0.3,0.1,0.5,0.1c0.3,0,0.6-0.2,0.8-0.5
	C23.7,15.3,23.5,14.8,23.1,14.5z M0.9,1.8h18c0.5,0,0.9-0.4,0.9-0.9C19.9,0.4,19.5,0,19,0h-18C0.4,0,0,0.4,0,0.9
	C0,1.4,0.4,1.8,0.9,1.8z M0.9,6.3h12.4c0.5,0,0.9-0.4,0.9-0.9c0-0.5-0.4-0.9-0.9-0.9H0.9C0.4,4.5,0,4.9,0,5.4C0,5.9,0.4,6.3,0.9,6.3
	z M0.9,10.8h9c0.5,0,0.9-0.4,0.9-0.9c0-0.5-0.4-0.9-0.9-0.9h-9C0.4,9,0,9.4,0,9.9C0,10.4,0.4,10.8,0.9,10.8z M0.9,15.4h7.9
	c0.5,0,0.9-0.4,0.9-0.9c0-0.5-0.4-0.9-0.9-0.9H0.9c-0.5,0-0.9,0.4-0.9,0.9C0,15,0.4,15.4,0.9,15.4z M11.1,18H0.9C0.4,18,0,18.5,0,19
	c0,0.5,0.4,0.9,0.9,0.9h10.2c0.5,0,0.9-0.4,0.9-0.9C12,18.5,11.6,18,11.1,18z"/>
</svg>
