<?xml version="1.0" encoding="utf-8"?>
<!-- Generator: Adobe Illustrator 22.1.0, SVG Export Plug-In . SVG Version: 6.00 Build 0)  -->
<svg version="1.1" id="Layer_1" xmlns="http://www.w3.org/2000/svg" xmlns:xlink="http://www.w3.org/1999/xlink" x="0px" y="0px"
	 viewBox="0 0 19.1 20" style="enable-background:new 0 0 19.1 20;" xml:space="preserve">
<style type="text/css">
	.st0{fill:#FFFFFF;}
</style>
<path class="st0" d="M3.2,15.3c-0.6,0-1,0.5-1,1s0.5,1,1,1s1-0.5,1-1S3.8,15.3,3.2,15.3z M3.2,5.2c0.3,0,0.6-0.3,0.6-0.6
	c0-0.3-0.3-0.6-0.6-0.6S2.6,4.4,2.6,4.7C2.6,5,2.9,5.2,3.2,5.2z M9,17.4c-0.7,0-1.3,0.6-1.3,1.3S8.3,20,9,20s1.3-0.6,1.3-1.3
	S9.7,17.4,9,17.4z M0.8,9.7C0.4,9.7,0,10,0,10.5c0,0.4,0.4,0.8,0.8,0.8c0.4,0,0.8-0.4,0.8-0.8C1.6,10,1.3,9.7,0.8,9.7z M17.3,8.8
	c-1,0-1.8,0.8-1.8,1.8c0,1,0.8,1.8,1.8,1.8c1,0,1.8-0.8,1.8-1.8C19.1,9.5,18.3,8.8,17.3,8.8z M14.9,14.8c-0.8,0-1.5,0.7-1.5,1.5
	s0.7,1.5,1.5,1.5c0.8,0,1.5-0.7,1.5-1.5S15.7,14.8,14.9,14.8z M14.9,6.7c1.1,0,2-0.9,2-2s-0.9-2-2-2c-1.1,0-2,0.9-2,2
	S13.8,6.7,14.9,6.7z M9.1,0C7.8,0,6.8,1,6.8,2.3s1,2.3,2.3,2.3c1.2,0,2.3-1,2.3-2.3S10.3,0,9.1,0z"/>
</svg>
