<svg xmlns="http://www.w3.org/2000/svg" width="35" height="34.207" viewBox="0 0 35 34.207"><defs><style>.a{fill:#fff;fill-rule:evenodd;}</style></defs><path class="a" d="M128.489,152.632V139.553l3.892,3.849v1.444a2.666,2.666,0,0,0,.961-.525l3.5,3.543a11.552,11.552,0,0,1-4.46,2.275v4.068a16.643,16.643,0,0,0,7.126-3.5l3.514,3.5,2.493-2.45L113.668,120l-2.275,2.406,8.088,8.136-.7.707h-7.123a.657.657,0,0,0-.656.649v10.411a.727.727,0,0,0,.131.35.757.757,0,0,0,.525.3h7.123Zm0-31.058v8.092l-4.066-4.024Zm3.892,7.7V133.6l4.765,4.724a8.938,8.938,0,0,0-4.765-9.055Zm0-9.274v4.024a13.661,13.661,0,0,1,8.787,18.153l2.929,2.843A17.519,17.519,0,0,0,132.381,120Z" transform="translate(-111 -120)"/></svg>