<svg xmlns="http://www.w3.org/2000/svg" width="50.015" height="50" viewBox="0 0 50.015 50"><defs><style>.a{fill:#eee;fill-rule:evenodd;}</style></defs><path class="a" d="M119.632,125.231l3.75-.875a2.1,2.1,0,1,1,1.062,4.062l-8,1.75a2.306,2.306,0,0,1-2.062-.312,2.231,2.231,0,0,1-.812-1.187l-1.812-8.562a2.217,2.217,0,0,1,1.187-2.312,2.293,2.293,0,0,1,2.937,1.562l.625,2.937a25.534,25.534,0,0,1,20.249-10.312,24.752,24.752,0,0,1,25,25,25.06,25.06,0,0,1-25,25,24.471,24.471,0,0,1-21.124-11.624,2.127,2.127,0,0,1,3.437-2.312,20.972,20.972,0,0,0,17.686,9.812,21.108,21.108,0,0,0,20.811-20.874,20.909,20.909,0,0,0-20.811-20.874A21.58,21.58,0,0,0,119.632,125.231Z" transform="translate(-111.742 -111.98)"/></svg>