<svg xmlns="http://www.w3.org/2000/svg" width="29.972" height="30" viewBox="0 0 29.972 30">
  <g id="icon_rewind" transform="translate(-433 -359)">
    <path id="icon_rewind-2" data-name="icon_rewind" d="M115.458,152.958l2.316-.523a1.243,1.243,0,1,1,.523,2.428l-4.707,1.046a1.317,1.317,0,0,1-1.756-1.046l-1.083-4.969a1.28,1.28,0,0,1,2.5-.523l.374,1.831a15.19,15.19,0,0,1,12.217-6.2,14.851,14.851,0,0,1,14.57,12.254,1.27,1.27,0,0,1-2.466.56,12.285,12.285,0,0,0-12.1-10.274A12.8,12.8,0,0,0,115.458,152.958Zm22.715,8.107a1.3,1.3,0,0,1,2.54.149,13.2,13.2,0,0,1-1.083,4.6,1.292,1.292,0,0,1-2.391-.934A16.332,16.332,0,0,0,138.172,161.065Zm-2.765,6.65a1.26,1.26,0,0,1,2.055,1.42,13.115,13.115,0,0,1-3.512,3.288,1.24,1.24,0,0,1-1.42-2.017A13.384,13.384,0,0,0,135.408,167.715Zm-5.492,4.11a1.232,1.232,0,0,1,.6,2.354,13.8,13.8,0,0,1-4.666.822,1.28,1.28,0,0,1,0-2.54,16.975,16.975,0,0,0,4.068-.635Zm-7.4.187a1.3,1.3,0,0,1,.785,1.27A1.315,1.315,0,0,1,122,174.44a11.187,11.187,0,0,1-4.633-2.092,1.3,1.3,0,0,1,1.121-2.017,22.745,22.745,0,0,0,2.242,1.046C121.316,171.614,121.91,171.824,122.519,172.011Zm-5.9-3.549a1.276,1.276,0,0,1-1.98,1.569,8.286,8.286,0,0,1-1.569-2.167,1.267,1.267,0,0,1,2.055-1.308c.234.317.467.624.71.934C116.09,167.821,116.347,168.14,116.616,168.462Z" transform="translate(322.26 214)" fill="#eee" fill-rule="evenodd"/>
    <text id="_10" data-name="10" transform="translate(439 380)" fill="#eee" font-size="14" font-family="OpenSans-Semibold, Open Sans" font-weight="600"><tspan x="0" y="0">10</tspan></text>
  </g>
</svg>
