<?xml version="1.0" encoding="utf-8"?>
<!-- Generator: Adobe Illustrator 22.1.0, SVG Export Plug-In . SVG Version: 6.00 Build 0)  -->
<svg version="1.1" id="Layer_1" xmlns="http://www.w3.org/2000/svg" xmlns:xlink="http://www.w3.org/1999/xlink" x="0px" y="0px"
	 viewBox="0 0 15 15" style="enable-background:new 0 0 15 15;" xml:space="preserve">
<style type="text/css">
	.st0{fill:#FFFFFF;}
</style>
<path class="st0" d="M13.3,6.7L15,5.5l-0.8-2l-1.9,0.3l-1-1V0.7L9.4,0L8.1,1.6H6.9L5.6,0L3.7,0.8v2.1l-1,1L0.8,3.7L0,5.5l1.5,1.2
	v1.5L0,9.6l0.7,1.7h2.2l0.8,1l-0.2,1.9L5.6,15l1.1-1.5h1.6L9.4,15l2-0.8l-0.2-1.9l0.9-0.9h2.1l0.7-1.7l-1.6-1.4V6.7z M7.5,10.8
	c-1.8,0-3.3-1.5-3.3-3.3s1.5-3.3,3.3-3.3c1.8,0,3.3,1.5,3.3,3.3S9.3,10.8,7.5,10.8z"/>
</svg>
