<?xml version="1.0" encoding="utf-8"?>
<!-- Generator: Adobe Illustrator 22.1.0, SVG Export Plug-In . SVG Version: 6.00 Build 0)  -->
<svg version="1.1" id="Layer_1" xmlns="http://www.w3.org/2000/svg" xmlns:xlink="http://www.w3.org/1999/xlink" x="0px" y="0px"
	 viewBox="0 0 11.5 8" style="enable-background:new 0 0 11.5 8;" xml:space="preserve">
<style type="text/css">
	.st0{fill:#FFFFFF;}
</style>
<path class="st0" d="M5.7,0C5.6,0,5.5,0.1,5.5,0.3v3.3L0.4,0C0.3,0,0.3,0,0.2,0C0.1,0,0,0.1,0,0.3v7.5C0,7.9,0.1,8,0.3,8
	c0,0,0.1,0,0.1,0l5.1-3.5v3.3C5.5,7.9,5.6,8,5.8,8c0,0,0.1,0,0.1,0l5.5-3.8c0.1-0.1,0.1-0.2,0.1-0.3c0,0,0,0-0.1-0.1L7.4,1.1
	C7.3,1,7.1,1,7,1.1C6.9,1.2,7,1.4,7.1,1.5l0,0L10.8,4L6,7.3v-7C6,0.1,5.9,0,5.7,0C5.8,0,5.8,0,5.7,0z"/>
</svg>
